<svg width="60" height="60" viewBox="0 0 60 60" fill="none" xmlns="http://www.w3.org/2000/svg">
<circle cx="30" cy="30" r="30" fill="#0DBA63"/>
<path d="M46.625 26.9531C46.625 37.3438 31.2187 45.7542 30.5626 46.1016C30.3897 46.1946 30.1964 46.2433 30 46.2433C29.8036 46.2433 29.6103 46.1946 29.4374 46.1016C28.7813 45.7542 13.375 37.3438 13.375 26.9531C13.3778 24.5131 14.3482 22.1739 16.0736 20.4486C17.7989 18.7232 20.1381 17.7528 22.5781 17.75C25.6434 17.75 28.3271 19.0681 30 21.2962C31.6729 19.0681 34.3566 17.75 37.4219 17.75C39.8619 17.7528 42.2011 18.7232 43.9264 20.4486C45.6518 22.1739 46.6222 24.5131 46.625 26.9531Z" fill="white"/>
</svg>
