<svg width="60" height="60" viewBox="0 0 60 60" fill="none" xmlns="http://www.w3.org/2000/svg">
<circle cx="30" cy="30" r="30" fill="#0DBA63"/>
<g clip-path="url(#clip0_746_774)">
<path d="M41 44H29V36H27V44H21V36H19V44C19 44.5304 19.2107 45.0391 19.5858 45.4142C19.9609 45.7893 20.4696 46 21 46H41C41.5304 46 42.0391 45.7893 42.4142 45.4142C42.7893 45.0391 43 44.5304 43 44V36H41V44Z" fill="white"/>
<path d="M46.79 27.27L42.71 19.11C42.5444 18.7768 42.2892 18.4964 41.973 18.3003C41.6568 18.1042 41.2921 18.0002 40.92 18H21.08C20.7079 18.0002 20.3433 18.1042 20.0271 18.3003C19.7108 18.4964 19.4556 18.7768 19.29 19.11L15.21 27.27C15.0707 27.5495 14.9988 27.8577 15 28.17V31.25C14.9991 31.7173 15.1619 32.1702 15.46 32.53C15.9007 33.0351 16.4449 33.4395 17.0557 33.7156C17.6666 33.9916 18.3297 34.133 19 34.13C20.0938 34.1317 21.1542 33.7535 22 33.06C22.8458 33.7539 23.906 34.1331 25 34.1331C26.094 34.1331 27.1542 33.7539 28 33.06C28.8458 33.7539 29.906 34.1331 31 34.1331C32.094 34.1331 33.1542 33.7539 34 33.06C34.8458 33.7539 35.906 34.1331 37 34.1331C38.094 34.1331 39.1542 33.7539 40 33.06C40.9442 33.8352 42.1521 34.2142 43.3699 34.1172C44.5877 34.0202 45.7204 33.4549 46.53 32.54C46.8318 32.1816 46.9981 31.7285 47 31.26V28.17C47.0012 27.8577 46.9293 27.5495 46.79 27.27ZM28 28.4V29.92L27.18 31C26.9283 31.3431 26.5993 31.6221 26.2197 31.8144C25.8401 32.0067 25.4206 32.1069 24.995 32.1069C24.5695 32.1069 24.1499 32.0067 23.7703 31.8144C23.3907 31.6221 23.0617 31.3431 22.81 31L22 29.88V28.4L24.59 20H29L28 28.4ZM40 29.88L39.19 31C38.9383 31.3431 38.6093 31.6221 38.2297 31.8144C37.8501 32.0067 37.4305 32.1069 37.005 32.1069C36.5795 32.1069 36.1599 32.0067 35.7803 31.8144C35.4007 31.6221 35.0717 31.3431 34.82 31L34 29.88V28.4L33 20H37.45L40 28.4V29.88Z" fill="white"/>
</g>
<defs>
<clipPath id="clip0_746_774">
<rect width="36" height="36" fill="white" transform="translate(13 14)"/>
</clipPath>
</defs>
</svg>
