<svg width="60" height="60" viewBox="0 0 60 60" fill="none" xmlns="http://www.w3.org/2000/svg">
<circle cx="30" cy="30" r="30" fill="#0DBA63"/>
<path d="M44.8438 20.125V35.5625C44.8438 36.3499 44.531 37.105 43.9742 37.6617C43.4175 38.2185 42.6624 38.5312 41.875 38.5312H27.7616C28.0637 38.8777 28.2202 39.3277 28.1983 39.7869C28.1764 40.2461 27.9778 40.6791 27.644 40.9952C27.3102 41.3114 26.8671 41.4862 26.4074 41.4832C25.9476 41.4802 25.5069 41.2995 25.1773 40.979L22.2085 38.0102C22.0425 37.8448 21.9107 37.6481 21.8208 37.4316C21.7309 37.2151 21.6846 36.983 21.6846 36.7485C21.6846 36.5141 21.7309 36.2819 21.8208 36.0654C21.9107 35.8489 22.0425 35.6523 22.2085 35.4868L25.1773 32.518C25.5052 32.188 25.9492 31.9993 26.4144 31.9924C26.8796 31.9855 27.329 32.1608 27.6666 32.481C28.0042 32.8011 28.2031 33.2406 28.2208 33.7055C28.2386 34.1704 28.0738 34.6238 27.7616 34.9688H41.2812V20.7188H25.8438C25.8438 21.1912 25.6561 21.6442 25.322 21.9783C24.988 22.3123 24.5349 22.5 24.0625 22.5C23.5901 22.5 23.137 22.3123 22.803 21.9783C22.4689 21.6442 22.2812 21.1912 22.2812 20.7188V20.125C22.2812 19.3376 22.594 18.5825 23.1508 18.0258C23.7075 17.469 24.4626 17.1562 25.25 17.1562H41.875C42.6624 17.1562 43.4175 17.469 43.9742 18.0258C44.531 18.5825 44.8438 19.3376 44.8438 20.125ZM35.9375 41.5C35.4651 41.5 35.012 41.6877 34.678 42.0217C34.3439 42.3558 34.1562 42.8088 34.1562 43.2812H18.7188V29.0312H32.2384C31.9363 29.3777 31.7798 29.8277 31.8017 30.2869C31.8236 30.7461 32.0222 31.1791 32.356 31.4952C32.6898 31.8114 33.1329 31.9862 33.5926 31.9832C34.0524 31.9802 34.4931 31.7995 34.8227 31.479L37.7915 28.5102C37.9575 28.3447 38.0893 28.1481 38.1792 27.9316C38.2691 27.7151 38.3154 27.483 38.3154 27.2485C38.3154 27.0141 38.2691 26.7819 38.1792 26.5654C38.0893 26.3489 37.9575 26.1523 37.7915 25.9868L34.8227 23.018C34.4948 22.688 34.0508 22.4993 33.5856 22.4924C33.1204 22.4855 32.671 22.6608 32.3334 22.981C31.9958 23.3011 31.7969 23.7406 31.7792 24.2055C31.7614 24.6704 31.9262 25.1238 32.2384 25.4688H18.125C17.3376 25.4688 16.5825 25.7815 16.0258 26.3383C15.469 26.895 15.1562 27.6501 15.1562 28.4375V43.875C15.1563 44.6624 15.469 45.4175 16.0258 45.9742C16.5825 46.531 17.3376 46.8438 18.125 46.8438H34.75C35.5374 46.8438 36.2925 46.531 36.8492 45.9742C37.406 45.4175 37.7188 44.6624 37.7188 43.875V43.2812C37.7188 42.8088 37.5311 42.3558 37.197 42.0217C36.863 41.6877 36.4099 41.5 35.9375 41.5Z" fill="white"/>
</svg>
